<?xml version="1.0" encoding="iso-8859-1"?>
<!-- Generator: Adobe Illustrator 18.1.1, SVG Export Plug-In . SVG Version: 6.00 Build 0)  -->
<svg version="1.1" id="Capa_1" xmlns="http://www.w3.org/2000/svg" xmlns:xlink="http://www.w3.org/1999/xlink" x="0px" y="0px"
	 viewBox="0 0 451.185 451.185" style="enable-background:new 0 0 451.185 451.185;" xml:space="preserve">
<g>
	<path d="M332.423,428.63H73.655C33.042,428.63,0,395.591,0,354.978V96.207c0-40.613,33.042-73.652,73.655-73.652h258.768
		c5.931,0,10.742,4.812,10.742,10.742s-4.812,10.742-10.742,10.742H73.655c-28.766,0-52.17,23.401-52.17,52.167v258.771
		c0,28.766,23.405,52.167,52.17,52.167h258.768c28.766,0,52.167-23.401,52.167-52.167V96.207c0-5.931,4.812-10.742,10.742-10.742
		s10.742,4.812,10.742,10.742v258.771C406.075,395.591,373.036,428.63,332.423,428.63z"/>
	<path d="M203.041,350.285c-68.756,0-124.696-55.936-124.696-124.693s55.94-124.7,124.696-124.7
		c68.76,0,124.696,55.943,124.696,124.7c0,5.784-0.399,11.596-1.196,17.282c-0.818,5.875-6.266,9.966-12.12,9.155
		c-5.875-0.818-9.973-6.245-9.155-12.12c0.65-4.707,0.986-9.519,0.986-14.316c0-56.916-46.299-103.215-103.211-103.215
		S99.83,168.677,99.83,225.592c0,56.909,46.299,103.208,103.211,103.208c5.934,0,10.742,4.812,10.742,10.742
		S208.975,350.285,203.041,350.285z"/>
	<path d="M440.442,106.949H332.423c-5.931,0-10.742-4.812-10.742-10.742V33.298c0-5.931,4.812-10.742,10.742-10.742h108.019
		c5.931,0,10.742,4.812,10.742,10.742v62.909C451.185,102.138,446.373,106.949,440.442,106.949z M343.165,85.464H429.7V44.04
		h-86.534V85.464z"/>
	<path d="M203.041,266.527c-22.573,0-40.935-18.366-40.935-40.935s18.362-40.935,40.935-40.935s40.931,18.366,40.931,40.935
		S225.613,266.527,203.041,266.527z M203.041,206.143c-10.725,0-19.45,8.728-19.45,19.45s8.725,19.45,19.45,19.45
		c10.722,0,19.446-8.728,19.446-19.45S213.762,206.143,203.041,206.143z"/>
	<path d="M260.065,344.613c-3.707,0-7.323-1.923-9.309-5.371c-2.965-5.14-1.21-11.708,3.931-14.673l165.243-95.41l9.77-6.406V96.207
		c0-5.931,4.812-10.742,10.742-10.742s10.742,4.812,10.742,10.742v132.351c0,3.623-1.825,7.008-4.861,8.987l-15.142,9.903
		l-165.753,95.724C263.737,344.151,261.89,344.613,260.065,344.613z"/>
	<path d="M245.273,350.285L245.273,350.285c-10.442,0-20.163-5.609-25.381-14.645l-2.969-5.14
		c-8.078-13.974-3.273-31.927,10.711-40.012l48.068-27.744c4.448-2.574,9.505-3.931,14.624-3.931
		c10.442,0,20.17,5.616,25.388,14.659l2.965,5.126c3.91,6.784,4.952,14.673,2.923,22.233c-2.028,7.553-6.875,13.869-13.645,17.778
		l-48.061,27.751C255.449,348.928,250.392,350.285,245.273,350.285z M290.327,280.298c-1.371,0-2.679,0.357-3.882,1.049
		l-48.061,27.744c-1.804,1.042-3.091,2.728-3.637,4.742c-0.539,2.014-0.259,4.119,0.783,5.917l2.965,5.147
		c1.392,2.406,3.986,3.903,6.777,3.903l0,0c1.371,0,2.679-0.35,3.882-1.042l48.061-27.751c1.804-1.042,3.098-2.728,3.637-4.742
		s0.266-4.112-0.776-5.917l-2.972-5.133C295.712,281.795,293.118,280.298,290.327,280.298z"/>
</g>
<g>
</g>
<g>
</g>
<g>
</g>
<g>
</g>
<g>
</g>
<g>
</g>
<g>
</g>
<g>
</g>
<g>
</g>
<g>
</g>
<g>
</g>
<g>
</g>
<g>
</g>
<g>
</g>
<g>
</g>
</svg>
